<?xml version="1.0" encoding="utf-8"?>
<!-- Generator: Adobe Illustrator 15.1.0, SVG Export Plug-In . SVG Version: 6.00 Build 0)  -->
<!DOCTYPE svg PUBLIC "-//W3C//DTD SVG 1.1//EN" "http://www.w3.org/Graphics/SVG/1.1/DTD/svg11.dtd">
<svg version="1.1" id="Layer_1" xmlns="http://www.w3.org/2000/svg" xmlns:xlink="http://www.w3.org/1999/xlink" x="0px" y="0px"
	 width="326px" height="36px" viewBox="0 0 326 36" enable-background="new 0 0 326 36" xml:space="preserve">
<g>
	<path fill="#FFF8E1" d="M10.432,21.392l-2.023,5.478c-0.244,0.662-0.699,1.71-0.699,2.197c0,0.944,0.907,1.291,2.826,1.291h0.56
		v0.664H3.037v-0.664c2.267-0.035,2.65-0.419,3.767-3.453l6.348-17.337L12.838,8.8h3.034l7.292,19.358
		c0.699,1.853,1.431,2.199,3.174,2.199v0.664h-9.592v-0.664h0.905c1.991,0,2.723-0.207,2.723-1.187c0-0.557-0.244-1.079-0.384-1.432
		l-2.339-6.348H10.432z M13.989,11.73l-2.966,8.126h6.036L13.989,11.73z M11.479,7.929l2.163-2.93
		c1.22-1.779,2.059-3.034,3.242-3.034c0.7,0,1.083,0.488,1.083,0.975c0,0.524-0.176,1.08-2.338,2.511l-3.698,2.479H11.479z"/>
	<path fill="#FFF8E1" d="M39.424,31.577l-7.571-18.872c-0.872-2.195-1.292-2.719-3.418-2.719V9.324h9.593v0.663
		c-3.21,0.068-3.978,0.8-3.313,2.407l6.278,15.627l5.51-14.408c0.384-0.975,0.594-1.675,0.594-2.163
		c0-1.047-0.872-1.463-3.244-1.463V9.324h8.093v0.663c-1.813,0-2.756,0.836-3.592,2.999l-7.187,18.592H39.424z"/>
	<path fill="#FFF8E1" d="M64.124,31.021h-8.476v-0.664c2.162-0.104,2.616-0.664,2.616-3.002V12.498c0-1.883-0.663-2.407-2.616-2.511
		V9.324h8.476v0.663c-2.198,0-2.966,0.488-2.966,2.823v14.793c0,2.056,0.56,2.755,2.966,2.755V31.021z"/>
	<path fill="#FFF8E1" d="M71.347,12.81c0-2.267-0.594-2.823-2.65-2.823h-0.7V9.324c1.292-0.072,3.002-0.14,4.919-0.212
		c1.919-0.068,4.047-0.104,5.862-0.104c9.208,0,13.29,4.676,13.29,10.433c0,5.265-4.082,11.58-12.906,11.58H67.997v-0.664h0.594
		c1.885,0,2.756-0.523,2.756-2.546V12.81z M74.241,28.439c0,1.431,0.105,1.918,2.862,1.918c4.673,0,6.627-0.664,8.791-2.826
		c1.291-1.255,2.894-3.941,2.894-7.534c0-2.583-0.732-5.441-2.791-7.5c-1.603-1.603-4.081-2.826-8.966-2.826
		c-1.429,0-2.371,0.104-2.79,0.14V28.439z"/>
	<path fill="#FFF8E1" d="M110.208,31.577c-6.835,0-12.592-4.394-12.592-10.918c0-6.942,5.337-11.859,12.768-11.859
		c6.592,0,12.244,4.501,12.244,10.777C122.628,26.624,116.976,31.577,110.208,31.577z M109.477,9.671
		c-6.14,0-8.582,5.72-8.582,9.906c0,6.524,4.431,11.129,10.047,11.129c5.687,0,8.408-5.021,8.408-9.978
		C119.35,14.24,115.233,9.671,109.477,9.671z"/>
	<path fill="#FFF8E1" d="M128.458,25.718c0.733,3.105,3.175,4.92,5.894,4.92c2.338,0,4.815-1.363,4.815-4.117
		c0-5.024-11.199-6.56-11.199-12.664c0-2.894,2.652-5.057,6.212-5.057c2.93,0,3.522,0.872,4.743,0.872
		c0.278,0,0.417-0.068,0.627-0.348h0.557l0.594,4.429h-0.594c-0.975-2.511-3.209-4.117-5.616-4.117
		c-2.302,0-3.906,1.327-3.906,3.281c0,4.953,11.197,6.276,11.197,12.695c0,3.419-3.034,5.965-7.115,5.965
		c-1.919,0-4.361-0.939-4.849-0.939c-0.316,0-0.56,0.172-0.699,0.384h-0.592l-0.731-5.304H128.458z"/>
	<path fill="#FFF8E1" d="M162.927,22.453c0,1.047-0.802,1.639-1.779,1.639c-1.011,0-1.778-0.659-1.778-1.639
		c0-0.976,0.767-1.639,1.778-1.639C162.125,20.814,162.927,21.442,162.927,22.453z"/>
	<path fill="#FFF8E1" d="M182.815,12.81c0-2.267-0.594-2.823-2.651-2.823h-0.699V9.324c1.292-0.072,3.002-0.14,4.919-0.212
		c1.919-0.068,4.047-0.104,5.862-0.104c9.208,0,13.289,4.676,13.289,10.433c0,5.265-4.081,11.58-12.905,11.58h-11.165v-0.664h0.594
		c1.886,0,2.757-0.523,2.757-2.546V12.81z M185.71,28.439c0,1.431,0.104,1.918,2.861,1.918c4.673,0,6.628-0.664,8.79-2.826
		c1.291-1.255,2.895-3.941,2.895-7.534c0-2.583-0.732-5.441-2.791-7.5c-1.603-1.603-4.081-2.826-8.966-2.826
		c-1.43,0-2.37,0.104-2.789,0.14V28.439z"/>
	<path fill="#FFF8E1" d="M221.678,31.577c-6.837,0-12.593-4.394-12.593-10.918c0-6.942,5.337-11.859,12.768-11.859
		c6.592,0,12.244,4.501,12.244,10.777C234.097,26.624,228.444,31.577,221.678,31.577z M220.945,9.671
		c-6.14,0-8.582,5.72-8.582,9.906c0,6.524,4.431,11.129,10.047,11.129c5.687,0,8.408-5.021,8.408-9.978
		C230.818,14.24,226.701,9.671,220.945,9.671z"/>
	<path fill="#FFF8E1" d="M264.939,9.324v0.663c-2.338,0.033-3.176,0.976-3.176,3.207v9.421c0,4.326-2.756,8.963-10.324,8.963
		c-6.662,0-10.082-3.802-10.082-8.791V12.602c0-2.231-0.627-2.582-3-2.615V9.324h8.966v0.663h-0.315
		c-1.918,0-2.754,0.524-2.754,2.547v9.697c0,4.71,2.754,7.536,7.953,7.536c3.94,0,7.952-1.644,7.952-7.571v-8.127
		c0-3.35-0.524-3.941-3.418-4.082V9.324H264.939z"/>
	<path fill="#FFF8E1" d="M274.081,27.739c0,2.095,0.838,2.618,2.791,2.618h0.803v0.664h-9.873v-0.664h0.595
		c2.058,0,2.791-0.559,2.791-2.894V12.777c0-2.163-0.594-2.791-2.619-2.791h-0.767V9.324c0.839,0,2.966-0.14,4.396-0.212
		c1.432-0.068,2.128-0.104,4.396-0.104c6.453,0,9.348,2.653,9.348,6.211c0,2.614-1.778,4.812-4.639,5.648
		c1.289,1.012,2.336,1.99,3.975,3.63l2.759,2.755c2.057,2.057,4.185,3.349,6.872,3.525v0.627c-6.104,0.279-7.676-1.048-10.782-4.152
		l-2.301-2.304c-1.534-1.535-2.755-2.547-3.592-3.103c-0.872,0.033-1.43,0.069-2.373,0.069c-0.769,0-1.219-0.036-1.779-0.069V27.739
		z M274.081,21.184c0.838,0.104,1.361,0.068,2.163,0.068c3.873,0,6.419-1.639,6.419-5.825c0-3.246-1.467-5.756-6.837-5.756
		c-0.664,0-1.117,0-1.745,0.072V21.184z"/>
	<path fill="#FFF8E1" d="M307.853,31.577c-6.837,0-12.593-4.394-12.593-10.918c0-6.942,5.337-11.859,12.768-11.859
		c6.592,0,12.244,4.501,12.244,10.777C320.271,26.624,314.619,31.577,307.853,31.577z M307.12,9.671c-6.14,0-8.582,5.72-8.582,9.906
		c0,6.524,4.433,11.129,10.049,11.129c5.684,0,8.406-5.021,8.406-9.978C316.993,14.24,312.876,9.671,307.12,9.671z"/>
</g>
</svg>
